<?xml version="1.0" encoding="UTF-8"?>
<svg width="88px" height="88px" viewBox="0 0 88 88" version="1.1" xmlns="http://www.w3.org/2000/svg" xmlns:xlink="http://www.w3.org/1999/xlink">
    <!-- Generator: Sketch 54 (76480) - https://sketchapp.com -->
    <title>分组 4</title>
    <desc>Created with Sketch.</desc>
    <defs>
        <polygon id="path-1" points="0.00030522473 0.134289756 52.5532257 0.134289756 52.5532257 48 0.00030522473 48"></polygon>
    </defs>
    <g id="Page-1" stroke="none" stroke-width="1" fill="none" fill-rule="evenodd">
        <g id="首页" transform="translate(-187.000000, -1132.000000)">
            <g id="Group-25" transform="translate(0.000000, 1032.000000)">
                <g id="Group-12" transform="translate(187.000000, 100.000000)">
                    <g id="分组-4">
                        <circle id="椭圆形" fill="#FFFFFF" cx="44" cy="44" r="44"></circle>
                        <g id="分组-6" transform="translate(18.000000, 20.000000)">
                            <path d="M13.9012087,19.2920571 C12.8279587,20.4132 11.5467413,22.5817714 11.2990239,25.3063429 C11.107763,27.4103429 13.479513,28.7914857 15.2797848,27.6634857 C16.2406978,27.0612 17.5616652,26.5514857 19.3809478,26.2812 C22.2942196,25.8829143 23.7684261,23.6326286 23.4003065,21.3486286 C23.1324261,19.6869143 21.9652739,18.2463429 20.4104152,17.5754857 C19.6580457,17.2514857 18.646437,17.1349143 17.5674261,17.2977714 C16.156013,17.5120571 14.8845891,18.2652 13.9012087,19.2920571" id="Fill-1" fill="#000000"></path>
                            <path d="M38.6521511,19.2920571 C39.7254011,20.4132 41.0066185,22.5817714 41.2543359,25.3063429 C41.4455967,27.4103429 39.0738467,28.7914857 37.273575,27.6634857 C36.312662,27.0612 34.9916946,26.5514857 33.172412,26.2812 C30.2591402,25.8829143 28.7849337,23.6326286 29.1530533,21.3486286 C29.4209337,19.6869143 30.5880859,18.2463429 32.1429446,17.5754857 C32.8953141,17.2514857 33.9069228,17.1349143 34.9859337,17.2977714 C36.3973467,17.5120571 37.6687707,18.2652 38.6521511,19.2920571" id="Fill-3" fill="#000000"></path>
                            <g id="Group-7">
                                <mask id="mask-2" fill="white">
                                    <use xlink:href="#path-1"></use>
                                </mask>
                                <g id="Clip-6"></g>
                                <path d="M45.0442391,36.3394857 C42.8798804,39.7737714 39.9735217,42.0017714 34.7726087,43.0029143 C32.4336957,43.4532 30.375337,43.8417714 28.1395435,43.9943429 C27.7547174,44.0206286 27.4263478,43.7114857 27.4263478,43.3286286 L27.4263478,39.6406286 C27.4263478,39.4086286 27.5415652,39.1972 27.7310978,39.0612 C29.965163,37.4560571 31.7688913,34.6989143 31.9993261,33.9549143 C32.3645652,32.7749143 31.5373043,32.2400571 31.5165652,32.2206286 C31.1225217,31.8852 29.0722283,30.7040571 26.2868478,30.6526286 C26.2839674,30.6526286 26.2805109,30.6532 26.2764783,30.6532 C26.2730217,30.6532 26.2701413,30.6526286 26.2661087,30.6526286 C23.4807283,30.7040571 21.4310109,31.8852 21.0369674,32.2206286 C21.0162283,32.2400571 20.1883913,32.7749143 20.5536304,33.9549143 C20.7846413,34.6989143 22.5883696,37.4560571 24.8218587,39.0612 C25.0119674,39.1972 25.1271848,39.4086286 25.1271848,39.6406286 L25.1271848,43.3286286 C25.1271848,43.7114857 24.7982391,44.0206286 24.413413,43.9943429 C22.1781957,43.8417714 20.1192609,43.4532 17.7809239,43.0029143 C12.5794348,42.0017714 9.67365217,39.7737714 7.50929348,36.3394857 C2.3008913,28.1217714 7.35202174,19.1406286 9.15344565,16.6326286 C12.0667174,12.5766286 15.3158478,9.86005714 20.9240543,8.36234286 C23.1033913,7.78062857 24.7291087,7.65948571 26.2764783,7.64177143 C27.8238478,7.65948571 29.4501413,7.78062857 31.6294783,8.36234286 C37.2376848,9.86005714 40.4868152,12.5766286 43.400087,16.6326286 C45.2009348,19.1406286 50.2526413,28.1217714 45.0442391,36.3394857 M48.0306739,14.8743429 C49.6085761,14.4132 50.8414022,13.3520571 51.6698152,12.1389143 C52.3651522,11.1212 52.6416739,9.87434286 52.5287609,8.64977143 C52.2971739,6.1252 51.5816739,4.86691429 49.8614783,2.90348571 C47.7818043,0.5292 43.5746413,-0.634228571 41.2334239,0.689771429 C39.5339674,1.38977143 38.3616304,2.79091429 37.8466087,4.38748571 C37.4629348,5.57662857 37.2296196,5.67891429 35.6453804,5.01891429 C32.4342717,3.6812 29.3383804,3.21034286 26.4026413,3.14977143 L26.1508913,3.14977143 C23.214,3.21034286 20.1186848,3.6812 16.9081522,5.01891429 C15.323337,5.67891429 15.0905978,5.57662857 14.7069239,4.38748571 C14.1913261,2.79091429 13.0195652,1.38977143 11.3201087,0.689771429 C8.9788913,-0.634228571 4.77172826,0.5292 2.69147826,2.90348571 C0.971282609,4.86691429 0.256358696,6.1252 0.0247717391,8.64977143 C-0.0881413043,9.87434286 0.188380435,11.1212 0.883141304,12.1389143 C1.71155435,13.3520571 2.94495652,14.4132 4.5228587,14.8743429 C4.99236957,15.0109143 5.09145652,15.6652 4.70029348,16.2377714 C0.949391304,21.7183429 -0.744304348,30.6223429 4.19103261,38.4086286 C6.85831522,42.6423429 10.5441196,45.1949143 16.8102174,46.7703429 C19.9447065,47.5577714 23.0043043,47.9594857 26.1508913,47.9914857 L26.1508913,48.0000571 C26.1929457,47.9994857 26.235,47.9954857 26.2764783,47.9954857 C26.3191087,47.9954857 26.3600109,47.9994857 26.4026413,48.0000571 L26.4026413,47.9914857 C29.5492283,47.9594857 32.6088261,47.5577714 35.7427391,46.7703429 C42.008837,45.1949143 45.6946413,42.6423429 48.3625,38.4086286 C53.297837,30.6223429 51.6035652,21.7183429 47.8532391,16.2377714 C47.4609239,15.6652 47.561163,15.0109143 48.0306739,14.8743429" id="Fill-5" fill="#000000" mask="url(#mask-2)"></path>
                            </g>
                        </g>
                    </g>
                </g>
            </g>
        </g>
    </g>
</svg>