<?xml version="1.0" encoding="UTF-8"?>
<svg width="401px" height="84px" viewBox="0 0 401 84" version="1.1" xmlns="http://www.w3.org/2000/svg" xmlns:xlink="http://www.w3.org/1999/xlink">
    <!-- Generator: Sketch 53.2 (72643) - https://sketchapp.com -->
    <title>Group 26</title>
    <desc>Created with Sketch.</desc>
    <defs>
        <polygon id="path-1" points="0.00052982406 0.235007073 91.2244672 0.235007073 91.2244672 84 0.00052982406 84"></polygon>
        <polygon id="path-3" points="0.8339 0.4469 29.544 0.4469 29.544 34.3499 0.8339 34.3499"></polygon>
    </defs>
    <g id="Page-1" stroke="none" stroke-width="1" fill="none" fill-rule="evenodd">
        <g id="logo/白底" transform="translate(-688.000000, -159.000000)">
            <g id="横版logo" transform="translate(689.000000, 158.000000)">
                <g id="Group-27">
                    <path d="M24.1304,34.5261 C22.2674,36.4881 20.0434,40.2831 19.6134,45.0511 C19.2814,48.7331 23.3984,51.1501 26.5234,49.1761 C28.1914,48.1221 30.4844,47.2301 33.6424,46.7571 C38.6994,46.0601 41.2584,42.1221 40.6194,38.1251 C40.1544,35.2171 38.1284,32.6961 35.4294,31.5221 C34.1234,30.9551 32.3674,30.7511 30.4944,31.0361 C28.0444,31.4111 25.8374,32.7291 24.1304,34.5261" id="Fill-1" fill="#000000"></path>
                    <path d="M67.0943,34.5261 C68.9573,36.4881 71.1813,40.2831 71.6113,45.0511 C71.9433,48.7331 67.8263,51.1501 64.7013,49.1761 C63.0333,48.1221 60.7403,47.2301 57.5823,46.7571 C52.5253,46.0601 49.9663,42.1221 50.6053,38.1251 C51.0703,35.2171 53.0963,32.6961 55.7953,31.5221 C57.1013,30.9551 58.8573,30.7511 60.7303,31.0361 C63.1803,31.4111 65.3873,32.7291 67.0943,34.5261" id="Fill-3" fill="#000000"></path>
                    <g id="Group-7" transform="translate(0.000000, 0.765000)">
                        <mask id="mask-2" fill="white">
                            <use xlink:href="#path-1"></use>
                        </mask>
                        <g id="Clip-6"></g>
                        <path d="M78.19,63.5941 C74.433,69.6041 69.388,73.5031 60.36,75.2551 C56.3,76.0431 52.727,76.7231 48.846,76.9901 C48.178,77.0361 47.608,76.4951 47.608,75.8251 L47.608,69.3711 C47.608,68.9651 47.808,68.5951 48.137,68.3571 C52.015,65.5481 55.146,60.7231 55.546,59.4211 C56.18,57.3561 54.744,56.4201 54.708,56.3861 C54.024,55.7991 50.465,53.7321 45.63,53.6421 C45.625,53.6421 45.619,53.6431 45.612,53.6431 C45.606,53.6431 45.601,53.6421 45.594,53.6421 C40.759,53.7321 37.201,55.7991 36.517,56.3861 C36.481,56.4201 35.044,57.3561 35.678,59.4211 C36.079,60.7231 39.21,65.5481 43.087,68.3571 C43.417,68.5951 43.617,68.9651 43.617,69.3711 L43.617,75.8251 C43.617,76.4951 43.046,77.0361 42.378,76.9901 C38.498,76.7231 34.924,76.0431 30.865,75.2551 C21.836,73.5031 16.792,69.6041 13.035,63.5941 C3.994,49.2131 12.762,33.4961 15.889,29.1071 C20.946,22.0091 26.586,17.2551 36.321,14.6341 C40.104,13.6161 42.926,13.4041 45.612,13.3731 C48.298,13.4041 51.121,13.6161 54.904,14.6341 C64.639,17.2551 70.279,22.0091 75.336,29.1071 C78.462,33.4961 87.231,49.2131 78.19,63.5941 M83.374,26.0301 C86.113,25.2231 88.253,23.3661 89.691,21.2431 C90.898,19.4621 91.378,17.2801 91.182,15.1371 C90.78,10.7191 89.538,8.5171 86.552,5.0811 C82.942,0.9261 75.639,-1.1099 71.575,1.2071 C68.625,2.4321 66.59,4.8841 65.696,7.6781 C65.03,9.7591 64.625,9.9381 61.875,8.7831 C56.301,6.4421 50.927,5.6181 45.831,5.5121 L45.394,5.5121 C40.296,5.6181 34.923,6.4421 29.35,8.7831 C26.599,9.9381 26.195,9.7591 25.529,7.6781 C24.634,4.8841 22.6,2.4321 19.65,1.2071 C15.586,-1.1099 8.283,0.9261 4.672,5.0811 C1.686,8.5171 0.445,10.7191 0.043,15.1371 C-0.153,17.2801 0.327,19.4621 1.533,21.2431 C2.971,23.3661 5.112,25.2231 7.851,26.0301 C8.666,26.2691 8.838,27.4141 8.159,28.4161 C1.648,38.0071 -1.292,53.5891 7.275,67.2151 C11.905,74.6241 18.303,79.0911 29.18,81.8481 C34.621,83.2261 39.932,83.9291 45.394,83.9851 L45.394,84.0001 C45.467,83.9991 45.54,83.9921 45.612,83.9921 C45.686,83.9921 45.757,83.9991 45.831,84.0001 L45.831,83.9851 C51.293,83.9291 56.604,83.2261 62.044,81.8481 C72.921,79.0911 79.319,74.6241 83.95,67.2151 C92.517,53.5891 89.576,38.0071 83.066,28.4161 C82.385,27.4141 82.559,26.2691 83.374,26.0301" id="Fill-5" fill="#000000" mask="url(#mask-2)"></path>
                    </g>
                    <path d="M135.3111,35.2966 C135.3111,31.1536 132.7441,29.5196 127.8421,29.5196 C127.0251,29.5196 123.8161,29.6366 123.1161,29.6946 L123.1161,41.5986 C123.7571,41.6576 127.2001,41.7156 127.8421,41.7156 C133.0361,41.7156 135.3111,39.7896 135.3111,35.8216 L135.3111,35.2966 Z M127.8421,49.9426 C126.4421,49.9426 124.5751,49.8266 123.1161,49.7686 L123.1161,63.9476 C123.1161,64.5896 122.5901,65.1146 121.9481,65.1146 L114.4201,65.1146 C113.7791,65.1146 113.2531,64.6486 113.2531,64.0066 L113.2531,24.7936 C113.2531,22.8096 114.0711,22.2836 115.8791,21.9916 C118.8561,21.5256 123.5241,21.2336 127.7251,21.2336 C136.5371,21.2336 145.2321,24.3266 145.2321,35.2966 L145.2321,35.8216 C145.2321,46.7346 136.5371,49.9426 127.8421,49.9426 L127.8421,49.9426 Z" id="Fill-8" fill="#000000"></path>
                    <path d="M167.1724,50.8185 L163.8474,50.8185 C159.7624,50.8185 158.7114,52.2185 158.7114,55.0785 L158.7114,55.6035 C158.7114,58.0545 159.9374,58.5215 162.3884,58.5215 C164.1394,58.5215 165.7734,57.9375 167.1724,57.2375 L167.1724,50.8185 Z M175.2834,65.1145 L168.7484,65.1145 C168.1074,65.1145 167.5814,64.5895 167.5814,63.9475 L167.5814,63.0145 C165.3054,64.6485 162.9724,65.6405 159.4704,65.6405 C154.3934,65.6405 149.4914,63.1895 149.4914,55.6035 L149.4914,55.0785 C149.4914,48.2515 153.8684,45.2165 163.8474,45.2165 L166.9974,45.2165 L166.9974,43.1155 C166.9974,39.7895 165.3634,39.0895 162.6214,39.0895 C158.8874,39.0895 154.7434,39.3225 152.9354,39.4985 L152.6434,39.4985 C152.0594,39.4985 151.5934,39.2065 151.5934,38.4475 L151.5934,33.7205 C151.5934,33.0785 152.0004,32.6115 152.7014,32.4365 C154.8604,31.9125 158.9454,31.2115 162.7964,31.2115 C171.1994,31.2115 176.4504,34.5955 176.4504,43.1155 L176.4504,63.9475 C176.4504,64.5895 175.9264,65.1145 175.2834,65.1145 L175.2834,65.1145 Z" id="Fill-10" fill="#000000"></path>
                    <path d="M210.939,65.1149 L203.878,65.1149 C203.237,65.1149 202.711,64.5309 202.711,63.8899 L202.711,44.4579 C202.711,40.3729 201.953,39.0309 198.393,39.0309 C196.702,39.0309 194.892,39.8479 192.909,40.8989 L192.909,63.8899 C192.909,64.5309 192.383,65.1149 191.742,65.1149 L184.68,65.1149 C184.039,65.1149 183.455,64.5309 183.455,63.8899 L183.455,32.8449 C183.455,32.2039 183.98,31.6779 184.622,31.6779 L191.158,31.6779 C191.8,31.6779 192.325,32.2039 192.325,32.8449 L192.325,34.2459 C195.535,31.9699 198.102,31.2119 201.836,31.2119 C210.297,31.2119 212.166,37.1059 212.166,44.4579 L212.166,63.8899 C212.166,64.5309 211.582,65.1149 210.939,65.1149" id="Fill-12" fill="#000000"></path>
                    <path d="M237.5504,39.3229 C236.1504,39.1479 234.1654,39.0309 232.7664,39.0309 C228.6224,39.0309 227.5724,42.0649 227.5724,46.1499 L227.5724,50.7019 C227.5724,54.8439 228.6224,57.8799 232.7664,57.8799 C234.6914,57.8799 236.4424,57.7039 237.5504,57.5289 L237.5504,39.3229 Z M245.1954,64.1239 C241.8684,64.9399 237.2584,65.6399 232.7664,65.6399 C223.3124,65.6399 218.1184,60.1559 218.1184,50.7019 L218.1184,46.1499 C218.1184,36.9889 222.9044,31.2119 232.7664,31.2119 C233.9324,31.2119 235.8584,31.3869 237.5504,31.6199 L237.5504,21.5249 C237.5504,20.8839 238.0754,20.3579 238.7184,20.3579 L245.7794,20.3579 C246.4204,20.3579 247.0034,20.8839 247.0034,21.5249 L247.0034,62.4299 C247.0034,63.3649 246.7704,63.7729 245.1954,64.1239 L245.1954,64.1239 Z" id="Fill-14" fill="#000000"></path>
                    <path d="M270.5211,50.8185 L267.1951,50.8185 C263.1101,50.8185 262.0601,52.2185 262.0601,55.0785 L262.0601,55.6035 C262.0601,58.0545 263.2861,58.5215 265.7361,58.5215 C267.4871,58.5215 269.1211,57.9375 270.5211,57.2375 L270.5211,50.8185 Z M278.6321,65.1145 L272.0961,65.1145 C271.4551,65.1145 270.9291,64.5895 270.9291,63.9475 L270.9291,63.0145 C268.6541,64.6485 266.3201,65.6405 262.8181,65.6405 C257.7421,65.6405 252.8401,63.1895 252.8401,55.6035 L252.8401,55.0785 C252.8401,48.2515 257.2161,45.2165 267.1951,45.2165 L270.3461,45.2165 L270.3461,43.1155 C270.3461,39.7895 268.7121,39.0895 265.9701,39.0895 C262.2351,39.0895 258.0921,39.3225 256.2831,39.4985 L255.9911,39.4985 C255.4081,39.4985 254.9411,39.2065 254.9411,38.4475 L254.9411,33.7205 C254.9411,33.0785 255.3491,32.6115 256.0491,32.4365 C258.2081,31.9125 262.2931,31.2115 266.1451,31.2115 C274.5471,31.2115 279.7991,34.5955 279.7991,43.1155 L279.7991,63.9475 C279.7991,64.5895 279.2751,65.1145 278.6321,65.1145 L278.6321,65.1145 Z" id="Fill-16" fill="#000000"></path>
                    <path d="M312.3609,64.6481 C311.1359,65.0561 307.7519,65.6401 303.6669,65.6401 C294.7979,65.6401 286.3939,60.9721 286.3939,47.0841 L286.3939,39.7311 C286.3939,25.8431 294.7979,21.2331 303.6669,21.2331 C307.7519,21.2331 311.1359,21.8161 312.3609,22.2251 C313.1779,22.4591 313.6449,22.6921 313.6449,23.5091 L313.6449,29.1691 C313.6449,29.8701 313.2959,30.3361 312.5369,30.3361 L312.3609,30.3361 C310.1439,30.1611 306.9339,29.8701 303.7249,29.8701 C299.6989,29.8701 296.4899,31.9701 296.4899,39.7311 L296.4899,47.0841 C296.4899,54.8441 299.6989,56.9451 303.7249,56.9451 C306.9339,56.9451 310.1439,56.6541 312.3609,56.4791 L312.5369,56.4791 C313.2959,56.4791 313.6449,56.9451 313.6449,57.6461 L313.6449,63.3061 C313.6449,64.1241 313.1779,64.4151 312.3609,64.6481" id="Fill-18" fill="#000000"></path>
                    <path d="M338.4468,46.3835 C338.4468,41.6575 336.6368,39.2645 333.2538,39.2645 C329.8688,39.2645 328.0018,41.6575 328.0018,46.3835 L328.0018,50.4685 C328.0018,55.1955 329.8688,57.6455 333.2538,57.6455 C336.6368,57.6455 338.4468,55.1955 338.4468,50.4685 L338.4468,46.3835 Z M333.2538,65.6405 C323.7998,65.6405 318.6058,59.7465 318.6058,50.4685 L318.6058,46.3835 C318.6058,37.1055 323.7998,31.2115 333.2538,31.2115 C342.7068,31.2115 347.8418,37.1055 347.8418,46.3835 L347.8418,50.4685 C347.8418,59.7465 342.7068,65.6405 333.2538,65.6405 L333.2538,65.6405 Z" id="Fill-20" fill="#000000"></path>
                    <path d="M362.4312,65.1149 L355.3122,65.1149 C354.6702,65.1149 354.1452,64.5899 354.1452,63.9479 L354.1452,32.8449 C354.1452,32.2039 354.6702,31.6779 355.3122,31.6779 L362.4312,31.6779 C363.0732,31.6779 363.5982,32.2039 363.5982,32.8449 L363.5982,63.9479 C363.5982,64.5899 363.0732,65.1149 362.4312,65.1149 M362.6642,27.8859 L355.0782,27.8859 C354.4372,27.8859 353.9112,27.3609 353.9112,26.7189 L353.9112,21.2909 C353.9112,20.6499 354.4372,20.1249 355.0782,20.1249 L362.6642,20.1249 C363.3062,20.1249 363.8312,20.6499 363.8312,21.2909 L363.8312,26.7189 C363.8312,27.3609 363.3062,27.8859 362.6642,27.8859" id="Fill-22" fill="#000000"></path>
                    <g id="Group-26" transform="translate(370.000000, 30.765000)">
                        <mask id="mask-4" fill="white">
                            <use xlink:href="#path-3"></use>
                        </mask>
                        <g id="Clip-25"></g>
                        <path d="M28.3179,34.3499 L21.2569,34.3499 C20.6159,34.3499 20.0899,33.7659 20.0899,33.1249 L20.0899,13.6929 C20.0899,9.6079 19.3319,8.2659 15.7719,8.2659 C14.0809,8.2659 12.2709,9.0829 10.2879,10.1339 L10.2879,33.1249 C10.2879,33.7659 9.7619,34.3499 9.1209,34.3499 L2.0589,34.3499 C1.4179,34.3499 0.8339,33.7659 0.8339,33.1249 L0.8339,2.0799 C0.8339,1.4389 1.3589,0.9129 2.0009,0.9129 L8.5369,0.9129 C9.1779,0.9129 9.7039,1.4389 9.7039,2.0799 L9.7039,3.4809 C12.9139,1.2049 15.4809,0.4469 19.2149,0.4469 C27.6759,0.4469 29.5449,6.3409 29.5449,13.6929 L29.5449,33.1249 C29.5449,33.7659 28.9609,34.3499 28.3179,34.3499" id="Fill-24" fill="#000000" mask="url(#mask-4)"></path>
                    </g>
                </g>
            </g>
        </g>
    </g>
</svg>